<svg width="151" height="36" fill="none" xmlns="http://www.w3.org/2000/svg">
    <path fill-rule="evenodd" clip-rule="evenodd" d="M44.312 13.535v-4.6h14.14v4.6H54.3v10.899h-5.646v-10.9h-4.343zM60.642 24.434h5.646V8.935h-5.646v15.499zM68.453 13.535v-4.6h14.14v4.6h-4.15v10.899h-5.646v-10.9h-4.344zM101.865 24.44V8.93h4.218l6.067 8.46-.052-1.633V8.929h4.366v15.51h-4.294l-6.001-8.33.009 1.847v6.483h-4.313zM83.22 24.432l2.875.002 2.673-.009 1.915-4.43-2.329-6.635-5.133 11.072zM94.453 9.207l7.412 21.15-6.938-4.76-2.928-8.25L87.042 4.28l7.411 4.928zM146.69 8.932l-4.896 5.943-1.99 2.231-6.703 7.332h3.876l4.748-4.967 4.772 4.967h3.864l-6.708-7.322 6.833-8.184h-3.796zM138.578 15.86l2.023-2.238-3.669-4.69h-3.851l5.497 6.929z" fill="#fff"/>
    <mask id="a" style="mask-type:alpha" maskUnits="userSpaceOnUse" x="0" y="0" width="137" height="36">
        <path d="M.6.61h136.374v35.107H.6V.61z" fill="#fff"/>
    </mask>
    <g mask="url(#a)" fill-rule="evenodd" clip-rule="evenodd">
        <path d="M124.542 18.345h8.796v-2.981h-8.796v2.98zm12.432-6.458h-13.473v12.539h-2.836V10.42c0-.206.037-.398.107-.583.074-.18.174-.339.301-.475.127-.137.279-.242.454-.319a1.41 1.41 0 0 1 .566-.113h12.773l2.108 2.957z" fill="#fff"/>
        <path d="m19.804 35.717-11.388-9.62-4.444-15.681 3.683 2.989 9.941 1.14 2.208 21.172zM19.854 10.416 7.655 9.467 3.972 7.504.6.61l19.254 2.57v7.236z" fill="#72BD44"/>
        <path d="m19.803 35.717 11.365-9.62 4.445-15.681-3.684 2.989-9.94 1.14-2.186 21.172zM19.73 10.416l12.2-.949 3.682-1.963L38.984.61 19.73 3.18l-1.966 3.274 1.966 3.962z" fill="#72BD44"/>
    </g>
</svg>
