<svg xmlns="http://www.w3.org/2000/svg" xmlns:xlink="http://www.w3.org/1999/xlink" width="15px" height="9px" viewBox="0 0 15 9" version="1.1" class="arrow svg portal-arrow replaced-svg">
    <!-- Generator: Sketch 49 (51002) - http://www.bohemiancoding.com/sketch -->
    <title>Page 1</title>
    <desc>Created with Sketch.</desc>
    <defs></defs>
    <g id="Page-1" stroke="none" stroke-width="1" fill="#FFFFFF" fill-rule="evenodd">
        <g id="Listing-v3" transform="translate(-410.000000, -598.000000)" fill="#FFFFFF">
            <path d="M411.491112,598.866605 C411.73908,598.866605 411.98706,598.959744 412.141888,599.144814 L417.406068,604.625444 C418.881251,603.089604 419.987639,601.937725 420.72523,601.169805 C421.157456,600.719807 421.805795,600.04481 422.670247,599.144814 C423.041588,598.773472 423.630681,598.773472 423.970561,599.144814 C424.31168,599.485933 424.341902,600.042325 424.00201,600.414905 L418.08693,606.608057 C417.745811,606.979399 417.157957,606.979399 416.786616,606.639506 L416.755167,606.608057 L410.810051,600.414905 C410.655222,600.260077 410.562083,600.043564 410.562083,599.79559 C410.562139,599.269408 410.995164,598.866605 411.491112,598.866605 Z" id="Page-1"></path>
        </g>
    </g>
</svg>