<svg width="29" height="30" viewBox="0 0 29 30" fill="none" xmlns="http://www.w3.org/2000/svg">
<path fill-rule="evenodd" clip-rule="evenodd" d="M0.712891 29.4861H27.8848C28.2637 29.4861 28.5488 29.201 28.5488 28.821V13.2411C28.5488 13.0488 28.4766 12.881 28.3555 12.762C28.2363 12.6456 28.0723 12.576 27.8848 12.576H0.712891C0.333984 12.576 0.0488281 12.8611 0.0488281 13.2411V28.821C0.0488281 29.201 0.333984 29.4861 0.712891 29.4861ZM27.2188 28.156H1.37891V13.906H27.2188V28.156Z" fill="#ffffff"/>
<path d="M16.2004 22.3609C16.2004 21.0309 15.1554 20.5559 14.4904 20.1759C14.1104 19.9859 13.7304 19.7959 13.7304 19.6059C13.7304 19.1309 13.9204 19.0359 14.0154 19.0359C14.4904 18.9409 14.9654 19.4159 14.9654 19.5109C15.1554 19.7959 15.6304 19.8909 15.9154 19.7009C16.2004 19.5109 16.2954 19.0359 16.1054 18.7509C15.9154 18.4659 15.5354 18.0859 14.9654 17.8959V17.2309C14.9654 16.8509 14.6804 16.5659 14.3004 16.5659C13.9204 16.5659 13.6354 16.8509 13.6354 17.2309V17.8009C12.8754 17.9909 12.4004 18.6559 12.4004 19.6059C12.4004 20.5559 13.2554 21.0309 13.8254 21.3159C14.5854 21.6959 14.8704 21.8859 14.8704 22.3609C14.8704 22.9309 14.4904 23.1209 14.2054 23.1209C13.9204 23.1209 13.7304 22.9309 13.7304 22.6459C13.7304 22.2659 13.4454 21.9809 13.0654 21.9809C12.6854 21.9809 12.4004 22.1709 12.4004 22.5509C12.4004 23.3109 12.6854 23.6909 12.9704 23.9759C13.1604 24.1659 13.4454 24.2609 13.6354 24.3559V24.9259C13.6354 25.3059 13.9204 25.5909 14.3004 25.5909C14.6804 25.5909 14.9654 25.3059 14.9654 24.9259V24.3559C15.6304 23.8809 16.2004 23.2159 16.2004 22.3609Z" fill="#ffffff"/>
<path d="M13.9391 -1.4782e-05C13.7491 -1.4782e-05 13.5591 0.0949855 13.4641 0.189985L10.6141 3.03999C10.3291 3.32499 10.3291 3.70499 10.6141 3.98999C10.8991 4.27499 11.2791 4.27499 11.5641 3.98999L13.9391 1.61499L16.3141 3.98999C16.5991 4.27499 16.9791 4.27499 17.2641 3.98999C17.5491 3.70499 17.5491 3.32499 17.2641 3.03999L14.4141 0.189985C14.3191 0.0949855 14.1291 -1.4782e-05 13.9391 -1.4782e-05Z" fill="#ffffff"/>
<path d="M13.9658 0.999947C13.5858 0.999947 13.3008 1.28495 13.3008 1.66495V10.4049C13.3008 10.7849 13.5858 11.0699 13.9658 11.0699C14.3458 11.0699 14.6308 10.7849 14.6308 10.4049V1.66495C14.6308 1.28495 14.3458 0.999947 13.9658 0.999947Z" fill="#ffffff"/>
</svg>
