<?xml version="1.0" encoding="UTF-8"?>
<svg width="27px" height="27px" viewBox="0 0 27 27" version="1.1" xmlns="http://www.w3.org/2000/svg" xmlns:xlink="http://www.w3.org/1999/xlink">
    <!-- Generator: Sketch 49 (51002) - http://www.bohemiancoding.com/sketch -->
    <desc>Created with Sketch.</desc>
    <defs></defs>
    <g id="Page-1" stroke="none" stroke-width="1" fill="none" fill-rule="evenodd">
        <g id="Dashboard-v3" transform="translate(-466.000000, -30.000000)" fill="#FFFFFF">
            <path d="M479.51707,30.5713281 C472.481734,30.5713281 466.75957,36.2934921 466.75957,43.3288281 C466.75957,50.3641641 472.481734,56.0863281 479.51707,56.0863281 C486.552406,56.0863281 492.27457,50.3641641 492.27457,43.3288281 C492.27457,36.2934921 486.552406,30.5713281 479.51707,30.5713281 Z M479.51707,32.2723281 C485.633299,32.2723281 490.57357,37.2125991 490.57357,43.3288281 C490.57357,49.4450571 485.633299,54.3853281 479.51707,54.3853281 C473.400841,54.3853281 468.46057,49.4450571 468.46057,43.3288281 C468.46057,37.2125991 473.400841,32.2723281 479.51707,32.2723281 Z M479.51707,36.2413281 C477.178195,36.2413281 475.26457,38.1549531 475.26457,40.4938281 C475.261248,40.7219577 475.349841,40.9412195 475.50931,41.1028995 C475.668779,41.2656909 475.886932,41.3564988 476.115065,41.3564988 C476.343197,41.3564988 476.56135,41.2656909 476.720819,41.1028995 C476.880288,40.9412166 476.968882,40.7219322 476.965559,40.4938281 C476.965559,39.0741168 478.097348,37.9423281 479.517059,37.9423281 C480.93677,37.9423281 482.068559,39.0741168 482.068559,40.4938281 C482.078527,41.658843 481.478312,42.2546183 480.642214,43.0453281 C480.223598,43.4406689 479.759593,43.8526511 479.366464,44.3919531 C478.973334,44.9312552 478.666559,45.6333713 478.666559,46.4473281 C478.663236,46.6754577 478.75183,46.8947195 478.911299,47.0563995 C479.070768,47.2191909 479.288921,47.3099988 479.517053,47.3099988 C479.745186,47.3099988 479.963339,47.2191909 480.122808,47.0563995 C480.282277,46.8947166 480.37087,46.6754322 480.367548,46.4473281 C480.367548,46.0265007 480.49047,45.7352612 480.739641,45.3930483 C480.988812,45.0508355 481.376411,44.6887209 481.811612,44.2767671 C482.680936,43.4550707 483.78171,42.3055632 483.769519,40.4937431 L483.769519,40.4848837 C483.765088,38.1504313 481.852577,36.2411722 479.517019,36.2411722 L479.51707,36.2413281 Z M479.51707,48.1483281 C478.89028,48.1483281 478.38307,48.655538 478.38307,49.2823281 C478.38307,49.9091183 478.89028,50.4163281 479.51707,50.4163281 C480.14386,50.4163281 480.65107,49.9091183 480.65107,49.2823281 C480.65107,48.655538 480.14386,48.1483281 479.51707,48.1483281 Z" id="Page-1"></path>
        </g>
    </g>
</svg>