<?xml version="1.0" encoding="UTF-8"?>
<svg width="21px" height="27px" viewBox="0 0 21 27" version="1.1" xmlns="http://www.w3.org/2000/svg" xmlns:xlink="http://www.w3.org/1999/xlink">
    <title>bookmark-7799</title>
    <g id="page-layouts" stroke="none" stroke-width="1" fill="none" fill-rule="evenodd">
        <g id="acco" transform="translate(-2909.000000, -19827.000000)" fill="#FFFFFF" fill-rule="nonzero">
            <g id="bookmark-7799" transform="translate(2909.000000, 19827.000000)">
                <path d="M1.46159187,26.999509 C1.23031968,26.999509 0.998138167,26.9449094 0.784446301,26.8345102 C0.300381182,26.5840119 6.7469955e-08,26.0929154 6.7469955e-08,25.5523192 L6.7469955e-08,2.25118407 C-0.000302974059,1.00979286 1.02026513,0 2.27422718,0 L18.7257728,0 C19.9797349,0 21.0000001,1.00979286 21.0000001,2.25118407 L21.0000001,25.5526192 C21.0000001,26.0929154 20.6996188,26.5843119 20.2155537,26.8345102 C19.7311855,27.0853084 19.1528534,27.0487087 18.7045552,26.7406108 L18.7045552,26.7403108 L11.3135446,21.6529468 C10.8267515,21.3184492 10.1729454,21.3184492 9.68675848,21.6529468 L2.29544481,26.7400108 C2.04537986,26.9122096 1.75409208,26.999509 1.46159187,26.999509 Z M19.3968562,25.7551178 C19.5041568,25.8283173 19.6041828,25.7971175 19.6544989,25.7710177 C19.7042088,25.7452179 19.7878669,25.6825183 19.7878669,25.5526192 L19.7878669,2.25118407 C19.7878669,1.67158817 19.3113795,1.19999151 18.7260759,1.19999151 L2.27422718,1.19999151 C1.68862053,1.19999151 1.21213314,1.67158817 1.21213314,2.25118407 L1.21213314,25.5526192 C1.21213314,25.6825183 1.29579123,25.7452179 1.34580422,25.7710177 C1.39612032,25.7974175 1.49554008,25.8289173 1.60314379,25.7551178 L8.99415435,20.6680538 C9.89499438,20.0479582 11.1056118,20.0479582 12.0055425,20.6680538 L19.3968562,25.7551178 Z" id="Shape"></path>
                <path d="M7.19606169,16 C6.95767064,16 6.72084384,15.9282916 6.51843045,15.7868578 C6.16021818,15.5364897 5.98408411,15.1203131 6.05885506,14.7005253 L6.58725726,11.738539 L4.3497602,9.64080393 C4.03284402,9.34379281 3.92053118,8.90745428 4.05724625,8.50241176 C4.19427418,8.09706831 4.55123505,7.80758027 4.98953669,7.74619195 L8.08142476,7.31406635 L9.46421796,4.61899886 C9.66037437,4.23712742 10.0570671,4 10.4997486,4 C10.9424302,4 11.3394357,4.23712742 11.5352793,4.61899886 C11.5352793,4.61899886 11.5352793,4.61899886 11.5355921,4.61899886 L12.9180725,7.31406635 L16.0099605,7.74649287 C16.4482622,7.80788119 16.8055359,8.09767016 16.9425638,8.50271268 C17.0795918,8.9077552 16.9672789,9.34379281 16.6500499,9.64110485 L14.4128657,11.7388399 L14.940955,14.7008262 C15.015726,15.120614 14.8399048,15.5364897 14.4813796,15.7868578 C14.1231674,16.0372258 13.6567093,16.0691237 13.265335,15.8714172 L10.5000615,14.4727265 L7.73447506,15.8714172 C7.56397228,15.9574812 7.37970413,16 7.19606169,16 Z M5.36370427,8.91016259 L7.49733541,10.9106995 C7.76982701,11.1661832 7.89371527,11.5336104 7.8295812,11.8941163 L7.32589408,14.7182798 L9.96289949,13.3845885 C10.2995252,13.2148679 10.7012235,13.2148679 11.0375363,13.3845885 L13.6748546,14.7182798 L13.1714803,11.8938153 C13.1070334,11.5339113 13.2309216,11.1658823 13.5043518,10.9103986 L15.6373572,8.91046351 L12.6887541,8.49819883 C12.3130222,8.44583821 11.9882848,8.21864125 11.8196591,7.89093597 L10.5000615,5.32045066 L9.18140234,7.89033413 C9.01340235,8.21803941 8.68835209,8.44523636 8.31199457,8.49789791 L5.36370427,8.91016259 Z" id="Shape"></path>
            </g>
        </g>
    </g>
</svg>