<?xml version="1.0" encoding="UTF-8"?>
<svg width="29px" height="30px" viewBox="0 0 29 30" version="1.1" xmlns="http://www.w3.org/2000/svg" xmlns:xlink="http://www.w3.org/1999/xlink">
    <!-- Generator: Sketch 49 (51002) - http://www.bohemiancoding.com/sketch -->
    <title>Page 1</title>
    <desc>Created with Sketch.</desc>
    <defs></defs>
    <g id="Page-1" stroke="none" stroke-width="1" fill="none" fill-rule="evenodd">
        <g id="Dashboard-v3" transform="translate(-40.000000, -281.000000)" fill="#FFFFFF">
            <g id="Page-1" transform="translate(39.961563, 280.888906)">
                <path d="M27.9231589,17.5971875 L0.753160118,17.5971875 C0.373160118,17.5971875 0.088160118,17.3121875 0.088160118,16.9321875 L0.088160118,1.3521875 C0.088160118,0.9721875 0.373160118,0.6871875 0.753160118,0.6871875 L27.9231589,0.6871875 C28.3031589,0.6871875 28.5881589,0.9721875 28.5881589,1.3521875 L28.5881589,16.9321875 C28.5881589,17.3121875 28.3031589,17.5971875 27.9231589,17.5971875 Z M1.4180069,16.2671875 L27.2580069,16.2671875 L27.2580069,2.0171875 L1.4180069,2.0171875 L1.4180069,16.2671875 Z" id="Fill-1"></path>
                <path d="M16.2380069,10.4720355 C16.2380069,9.1420355 15.1930069,8.6670355 14.5280069,8.2870355 C14.1480069,8.0970355 13.7680069,7.9070355 13.7680069,7.7170355 C13.7680069,7.2420355 13.9580069,7.1470355 14.0530069,7.1470355 C14.5280069,7.0520355 15.0030069,7.5270355 15.0030069,7.6220355 C15.1930069,7.9070355 15.6680069,8.0020355 15.9530069,7.8120355 C16.2380069,7.6220355 16.3330069,7.1470355 16.1430069,6.8620355 C15.9530069,6.5770355 15.5730069,6.1970355 15.0030069,6.0070355 L15.0030069,5.3420355 C15.0030069,4.9620355 14.7180069,4.6770355 14.3380069,4.6770355 C13.9580069,4.6770355 13.6730069,4.9620355 13.6730069,5.3420355 L13.6730069,5.9120355 C12.9130069,6.1020355 12.4380069,6.7670355 12.4380069,7.7170355 C12.4380069,8.6670355 13.2930069,9.1420355 13.8630069,9.4270355 C14.6230069,9.8070355 14.9080069,9.9970355 14.9080069,10.4720355 C14.9080069,11.0420355 14.5280069,11.2320355 14.2430069,11.2320355 C13.9580069,11.2320355 13.7680069,11.0420355 13.7680069,10.7570355 C13.7680069,10.3770355 13.4830069,10.0920355 13.1030069,10.0920355 C12.7230069,10.0920355 12.4380069,10.2820355 12.4380069,10.6620355 C12.4380069,11.4220355 12.7230069,11.8020355 13.0080069,12.0870355 C13.1980069,12.2770355 13.4830069,12.3720355 13.6730069,12.4670355 L13.6730069,13.0370355 C13.6730069,13.4170355 13.9580069,13.7020355 14.3380069,13.7020355 C14.7180069,13.7020355 15.0030069,13.4170355 15.0030069,13.0370355 L15.0030069,12.4670355 C15.6680069,11.9920355 16.2380069,11.3270355 16.2380069,10.4720355 Z" id="Fill-2"></path>
                <path d="M14.3380069,29.1871875 C14.1480069,29.1871875 13.9580069,29.0921875 13.8630069,28.9971875 L11.0130069,26.1471875 C10.7280069,25.8621875 10.7280069,25.4821875 11.0130069,25.1971875 C11.2980069,24.9121875 11.6780069,24.9121875 11.9630069,25.1971875 L14.3380069,27.5721875 L16.7130069,25.1971875 C16.9980069,24.9121875 17.3780069,24.9121875 17.6630069,25.1971875 C17.9480069,25.4821875 17.9480069,25.8621875 17.6630069,26.1471875 L14.8130069,28.9971875 C14.7180069,29.0921875 14.5280069,29.1871875 14.3380069,29.1871875 Z" id="Fill-3"></path>
                <path d="M14.3380069,29.1871875 C13.9580069,29.1871875 13.6730069,28.9021875 13.6730069,28.5221875 L13.6730069,19.7821875 C13.6730069,19.4021875 13.9580069,19.1171875 14.3380069,19.1171875 C14.7180069,19.1171875 15.0030069,19.4021875 15.0030069,19.7821875 L15.0030069,28.5221875 C15.0030069,28.9021875 14.7180069,29.1871875 14.3380069,29.1871875 Z" id="Fill-4"></path>
            </g>
        </g>
    </g>
</svg>