<svg width="161" height="50" fill="none" xmlns="http://www.w3.org/2000/svg">
    <path d="M52.9 36.1v-15h5.3v-2.8H44.4v2.8h5.3V36h3.2v.1zm8.4 0V25.4c.1-.1.4-.1.8-.2s.7-.1 1.1-.1c.6 0 1.1 0 1.5.1.4.1.8.2 1 .3l.5-2.6c-.1-.1-.3-.1-.6-.2-.2-.1-.5-.1-.8-.2-.3 0-.5-.1-.8-.1h-.7c-1.1 0-2 .1-2.9.3-.9.2-1.6.4-2.2.6V36h3.1v.1zm10.1.2c1.2 0 2.2-.1 3.2-.2.9-.1 1.6-.3 2.1-.4v-8c0-.8-.1-1.5-.3-2.2-.2-.7-.5-1.2-.9-1.7s-1-.8-1.6-1.1c-.7-.3-1.5-.4-2.5-.4-.8 0-1.6.1-2.3.2-.7.1-1.3.3-1.7.5l.4 2.5c.4-.1.8-.3 1.4-.4.6-.1 1.2-.1 1.9-.1.5 0 .9.1 1.3.2.3.1.6.3.8.6.2.2.4.5.4.9.1.3.1.7.1 1v.5c-.3-.2-.7-.2-1.1-.3-.4 0-.7-.1-1-.1-.7 0-1.4.1-2.1.2-.7.1-1.2.4-1.7.7-.5.3-.9.8-1.2 1.3-.3.5-.4 1.2-.4 1.9 0 .8.1 1.5.4 2 .3.5.6 1 1.1 1.3.5.3 1 .6 1.7.7.5.4 1.2.4 2 .4zm.3-2.4c-.8 0-1.4-.1-1.8-.4-.4-.3-.7-.8-.7-1.5 0-.4.1-.7.2-.9.2-.2.4-.4.7-.6l.9-.3c.3-.1.7-.1 1-.1.4 0 .7 0 1 .1.3.1.6.1.7.2v3.4c-.4 0-1.1.1-2 .1zM85 36.4c1 0 1.9-.1 2.9-.2.9-.2 1.7-.3 2.3-.5V17.9l-3 .5v4.7c-.3-.2-.8-.4-1.2-.5-.5-.2-1-.2-1.7-.2-.9 0-1.8.2-2.5.5s-1.3.8-1.8 1.4c-.5.6-.9 1.3-1.1 2.2-.3.9-.4 1.8-.4 2.9 0 1.1.2 2 .5 2.9.3.9.7 1.6 1.3 2.2.6.6 1.3 1.1 2.1 1.4.7.3 1.6.5 2.6.5zm.1-2.7c-1.1 0-2-.4-2.6-1.2-.6-.8-.9-1.8-.9-3.2 0-1.3.3-2.3.8-3.1.5-.8 1.3-1.1 2.4-1.1.5 0 1 .1 1.4.2.4.2.8.3 1.1.5v7.7c-.2.1-.5.1-.8.1-.5.1-1 .1-1.4.1zm13.6 2.7c.4 0 .9 0 1.3-.1s.8-.1 1.2-.2c.4-.1.7-.2 1-.3.3-.1.5-.2.7-.3l-.4-2.5c-.3.2-.8.3-1.4.4-.6.1-1.3.2-2 .2-1.2 0-2.2-.3-2.9-.9-.7-.6-1-1.4-1.1-2.5h8.6V29c0-2.3-.5-4-1.5-5.1-1-1.1-2.4-1.7-4.2-1.7-.8 0-1.5.1-2.2.4-.7.3-1.4.7-1.9 1.3-.5.6-1 1.3-1.4 2.2-.4.9-.5 2.2-.5 3.3 0 1 .1 1.9.4 2.8.3.8.7 1.6 1.2 2.2.5.6 1.2 1.1 2.1 1.5.9.3 1.9.5 3 .5zm2-8.3h-5.6c0-.4.1-.8.3-1.1.1-.4.3-.7.6-1 .3-.3.5-.5.9-.7.4-.2.7-.3 1.2-.3.4 0 .8.1 1.2.2.3.2.6.4.8.7.2.3.4.6.5 1 .1.4.1.7.1 1.2zm8.2 8V23.4c.3.3 1.7 1.5 3.2 3.8 2.3 3.4 5 8.3 5.3 8.8h2.7V18.4H117v11.4c-.3-.4-1.3-2.7-3.2-5.4-2.1-2.8-5-5.7-5.4-6h-2.6v17.7h3.1zm20 .3c.4 0 .9 0 1.3-.1s.8-.1 1.2-.2c.4-.1.7-.2 1-.3.3-.1.5-.2.7-.3l-.4-2.5c-.3.2-.8.3-1.4.4-.6.1-1.3.2-2 .2-1.2 0-2.2-.3-2.9-.9-.7-.6-1-1.4-1.1-2.5h8.6V29c0-2.3-.5-4-1.5-5.1-1-1.1-2.4-1.7-4.2-1.7-.8 0-1.5.1-2.2.4-.7.3-1.4.7-1.9 1.3-.6.6-1 1.3-1.4 2.2-.3.9-.5 1.9-.5 3.1 0 1 .1 1.9.4 2.8.3.8.7 1.6 1.2 2.2.5.6 1.2 1.1 2.1 1.5.8.5 1.8.7 3 .7zm2-8.3h-5.6c0-.4.1-.8.3-1.1.1-.4.3-.7.6-1 .2-.3.5-.5.9-.7.3-.3.7-.3 1.1-.3.4 0 .8.1 1.2.2.3.2.6.4.8.7.2.3.4.6.5 1 .1.3.2.7.2 1.2zm6.5 8c.4-.7.8-1.5 1.4-2.5.6-.9 1.1-1.8 1.7-2.5.3.4.6.8.9 1.3.3.4.6.9.9 1.3.3.5.5.9.8 1.3.2.4.4.8.6 1.1h3.3c-.5-1.1-1.2-2.2-2-3.4-.8-1.2-1.7-2.4-2.6-3.6l4.3-6.3h-3.2l-2.8 4.4-2.8-4.4h-3.3l4.3 6.4c-.4.5-.8 1.1-1.3 1.7l-1.2 1.8c-.4.6-.8 1.2-1.1 1.8-.3.6-.6 1.1-.9 1.6h3zm15 .3c.8 0 1.4-.1 2-.2.6-.2 1-.3 1.4-.5l-.5-2.5c-.2.1-.6.2-1 .3-.4.1-.9.2-1.5.2-.8 0-1.4-.2-1.7-.7-.3-.5-.5-1.2-.5-2.3v-5.4h4.6v-2.6h-4.6v-4.9l-3 .5v12.4c0 .9.1 1.7.2 2.4s.4 1.3.8 1.8.9.9 1.5 1.1c.6.2 1.4.4 2.3.4z" fill="#fff"/>
    <path fill-rule="evenodd" clip-rule="evenodd" d="m38.105 10.64-10.4 26-21.6-18.3c-1-.9-1.2-2.4-.3-3.5.3-.4.8-.7 1.3-.8l28.1-6.8c1.3-.3 2.7.5 3 1.8.1.6.1 1.1-.1 1.6z" fill="#FF6565"/>
    <path fill-rule="evenodd" clip-rule="evenodd" d="m29.705 38.54-11.6-9.9-6.1 14c-.5 1.3 0 2.7 1.3 3.3.5.2 1 .3 1.5.1l13.8-3.2c1.3-.3 2.2-1.6 1.9-3-.1-.5-.4-.9-.8-1.3z" fill="#3754FF"/>
</svg>
