<?xml version="1.0" encoding="UTF-8"?>
<svg width="29px" height="24px" viewBox="0 0 29 24" version="1.1" xmlns="http://www.w3.org/2000/svg" xmlns:xlink="http://www.w3.org/1999/xlink">
    <!-- Generator: Sketch 49 (51002) - http://www.bohemiancoding.com/sketch -->
    <desc>Created with Sketch.</desc>
    <defs></defs>
    <g id="Page-1" stroke="none" stroke-width="1" fill="none" fill-rule="evenodd">
        <g id="Dashboard-v3" transform="translate(-560.000000, -33.000000)" fill="#FFFFFF">
            <g id="Page-1" transform="translate(560.019922, 33.411328)">
                <path d="M24.93576,5.66043429 L11.0448,5.66043429 C10.638396,5.66043429 10.307916,6.03811337 10.307916,6.50258743 C10.307916,6.96704914 10.6383852,7.34474057 11.0448,7.34474057 L24.9372,7.34474057 C25.343604,7.34474057 25.674084,6.96706149 25.674084,6.50258743 C25.6726764,6.03652114 25.3422072,5.66043429 24.935796,5.66043429 L24.93576,5.66043429 Z" id="Fill-1"></path>
                <path d="M20.26692,9.18802286 L11.16,9.18802286 C10.753596,9.18802286 10.423116,9.56570194 10.423116,10.030176 C10.423116,10.4946501 10.7535852,10.8723291 11.16,10.8723291 L20.26836,10.8723291 C20.674764,10.8723291 21.005244,10.4946501 21.005244,10.030176 C21.0024288,9.56571429 20.6733672,9.18802286 20.266956,9.18802286 L20.26692,9.18802286 Z" id="Fill-2"></path>
                <path d="M26.1324,0.366582857 L9.84816,0.366582857 C8.399736,0.366582857 7.219872,1.71335314 7.219872,3.368736 L7.219872,7.56818743 L2.164392,7.56818743 C0.992988,7.56818743 0.040968,8.65621029 0.040968,9.99495771 L0.040968,17.1805577 C0.040968,18.5193051 0.992988,19.607328 2.164392,19.607328 L3.439872,19.607328 L3.439872,22.6496366 C3.439872,22.9903488 3.619872,23.2973074 3.894084,23.4258789 C3.9854916,23.4692722 4.0797072,23.4885559 4.1767416,23.4885559 C4.3693992,23.4885559 4.5564336,23.4033778 4.6970496,23.2410569 L7.879374,19.6041106 L14.116014,19.6041106 C15.287418,19.6041106 16.239438,18.5160878 16.239438,17.1773403 L16.239438,16.1567918 L18.454266,16.1567918 L22.868586,21.2017289 C23.0092092,21.3624411 23.1976476,21.4492279 23.388894,21.4492279 C23.4831132,21.4492279 23.5787364,21.4283355 23.6715516,21.3865509 C23.9457708,21.2563707 24.1257636,20.949408 24.1257636,20.608704 L24.1257636,16.1586926 L26.1296676,16.1586926 C27.5780916,16.1586926 28.7579556,14.8119223 28.7579556,13.1565394 L28.7593632,3.37071086 C28.7593632,1.71536914 27.5809392,0.366953143 26.1324792,0.366953143 L26.1324,0.366582857 Z M14.7672,17.1837257 C14.7672,17.5951543 14.4747,17.9278354 14.116104,17.9278354 L7.574184,17.9278354 C7.3787148,17.9278354 7.191684,18.0162267 7.053876,18.1753344 L4.912164,20.6230053 L4.912164,18.7699721 C4.912164,18.3055104 4.5816948,17.927819 4.17528,17.927819 L2.164356,17.927819 C1.804356,17.927819 1.51326,17.5935333 1.51326,17.1837093 L1.51326,9.99810926 C1.51326,9.58828937 1.80576,9.25399954 2.164356,9.25399954 L7.219836,9.25399954 L7.219836,13.162571 C7.219836,14.8179127 8.39826,16.1647241 9.848124,16.1647241 L14.768604,16.1647241 L14.7672,17.1837257 Z M27.28692,13.1610651 C27.28692,13.8874834 26.76942,14.4805166 26.1324,14.4805166 L23.391612,14.4805166 C22.985208,14.4805166 22.654728,14.8581957 22.654728,15.3226697 L22.654728,18.5835703 L19.281132,14.728032 C19.1433204,14.570533 18.9562896,14.480533 18.760824,14.480533 L9.847944,14.480533 C9.212328,14.480533 8.693424,13.8891045 8.693424,13.1610816 L8.6920164,3.37031589 C8.6920164,2.6438976 9.2095164,2.05086446 9.8465364,2.05086446 L26.1322164,2.05086446 C26.7678324,2.05086446 27.2867364,2.64229303 27.2867364,3.37031589 L27.288144,13.1610816 L27.28692,13.1610651 Z" id="Fill-3"></path>
            </g>
        </g>
    </g>
</svg>