<?xml version="1.0" encoding="UTF-8"?>
<svg width="31px" height="24px" viewBox="0 0 31 24" version="1.1" xmlns="http://www.w3.org/2000/svg" xmlns:xlink="http://www.w3.org/1999/xlink">
    <!-- Generator: Sketch 49 (51002) - http://www.bohemiancoding.com/sketch -->
    <title>Page 1</title>
    <desc>Created with Sketch.</desc>
    <defs></defs>
    <g id="Page-1" stroke="none" stroke-width="1" fill="none" fill-rule="evenodd">
        <g id="Dashboard-v3" transform="translate(-38.000000, -166.000000)" fill="#fff">
            <path d="M45.9375625,178.160241 L42.3609135,178.160241 C41.5028319,178.160241 40.8057135,178.857359 40.8057135,179.715441 L40.8057135,187.491441 L38.9391625,187.491441 C38.5108604,187.491441 38.1615625,187.839234 38.1615625,188.269041 C38.1615625,188.698847 38.510876,189.046641 38.9391625,189.046641 L68.1780889,189.046641 C68.606391,189.046641 68.9556889,188.698847 68.9556889,188.269041 C68.9556889,187.839234 68.6063754,187.491441 68.1780889,187.491441 L66.3115379,187.491441 L66.3115379,168.285498 C66.3115379,167.872398 66.1475109,167.477533 65.8559031,167.185933 C65.5642954,166.894333 65.1679215,166.730298 64.7563379,166.730298 L61.1796889,166.730298 C60.320091,166.730298 59.6244889,167.4259 59.6244889,168.285498 L59.6244889,187.491441 L56.9028889,187.491441 L56.9028889,175.049841 C56.9028889,174.638257 56.7388658,174.241875 56.4472542,173.950275 C56.1556425,173.658675 55.7592726,173.494641 55.3476889,173.494641 L51.7695236,173.494641 C50.911442,173.494641 50.2143236,174.191759 50.2143236,175.049841 L50.2143236,187.491441 L47.4927236,187.491441 L47.4927236,179.715441 C47.4927236,179.303857 47.3302169,178.907475 47.0370889,178.615875 C46.7454889,178.324275 46.3506236,178.160241 45.9375236,178.160241 L45.9375625,178.160241 Z M42.3214115,179.715441 L45.9375625,179.715441 L45.9375625,187.491441 L42.3609135,187.491441 L42.3214115,179.715441 Z M61.1797667,168.285498 L64.7959177,168.285498 L64.7944014,187.491441 L61.1797667,187.491441 L61.1797667,168.285498 Z M51.7696403,175.049841 L55.3857913,175.049841 L55.3857913,187.491441 L51.7696403,187.491441 L51.7696403,175.049841 Z" id="Page-1"></path>
        </g>
    </g>
</svg>
