<?xml version="1.0" encoding="UTF-8"?>
<svg width="22px" height="27px" viewBox="0 0 22 27" version="1.1" xmlns="http://www.w3.org/2000/svg" xmlns:xlink="http://www.w3.org/1999/xlink">
    <!-- Generator: Sketch 49 (51002) - http://www.bohemiancoding.com/sketch -->
    <title>Group 6</title>
    <desc>Created with Sketch.</desc>
    <defs></defs>
    <g id="Page-1" stroke="none" stroke-width="1" fill="none" fill-rule="evenodd">
        <g id="Dashboard-v3" transform="translate(-47.000000, -969.000000)" fill="#FFFFFF">
            <g id="Group-6" transform="translate(47.651563, 969.171289)">
                <path d="M9.05445,25.82595 C9.05445,25.5868875 8.959527,25.358355 8.790777,25.189605 C8.622027,25.020855 8.3935125,24.925932 8.154432,24.925932 L2.047932,24.925932 L2.047932,2.074482 L8.154432,2.074482 C8.650152,2.074482 9.054432,1.6719435 9.054432,1.174482 C9.054432,0.6770205 8.650134,0.274482 8.154432,0.274482 L0.247932,0.274482 L0.247932,26.725932 L8.154432,26.725932 C8.3934945,26.725932 8.622027,26.631009 8.790777,26.462259 C8.959527,26.293509 9.05445,26.0649945 9.05445,25.825914 L9.05445,25.82595 Z" id="Fill-1"></path>
                <path d="M20.25,14.0571 L20.299221,13.990302 C20.315043,13.963932 20.3308605,13.9375665 20.344923,13.9094415 C20.344923,13.8865905 20.3712885,13.8637395 20.380077,13.8373695 C20.3923845,13.80573 20.4029325,13.772331 20.411721,13.738932 L20.411721,13.672134 L20.411721,13.6703745 C20.416995,13.615884 20.416995,13.559634 20.411721,13.505139 C20.416995,13.448889 20.416995,13.392639 20.411721,13.3381485 L20.411721,13.2713505 L20.411721,13.2695955 C20.4029325,13.2361965 20.3923845,13.204557 20.380077,13.171158 C20.380077,13.1483025 20.357226,13.125456 20.344923,13.099086 C20.3308605,13.070961 20.3150385,13.0445955 20.299221,13.0182255 L20.25,12.9461535 L20.204298,12.888144 L14.472198,6.695244 C14.3122365,6.5124315 14.083722,6.3999315 13.841163,6.3876285 C13.5968265,6.375321 13.359528,6.4614555 13.180203,6.626691 C13.0026645,6.7919265 12.898953,7.0239555 12.893679,7.268301 C12.888405,7.510878 12.9815685,7.746426 13.153833,7.920441 L17.492103,12.599541 L7.281153,12.599541 C6.783678,12.599541 6.381153,13.0020795 6.381153,13.499541 C6.381153,13.9970025 6.7836915,14.399541 7.281153,14.399541 L17.492103,14.399541 L13.153833,19.078641 C12.8356695,19.4460255 12.8637945,19.999746 13.220631,20.330181 C13.575708,20.6606475 14.131161,20.6483445 14.472171,20.303811 L20.215071,14.110911 L20.25,14.0571 Z" id="Fill-2"></path>
            </g>
        </g>
    </g>
</svg>