<svg width="19px" height="23px" viewBox="0 0 19 23" version="1.1" xmlns="http://www.w3.org/2000/svg" xmlns:xlink="http://www.w3.org/1999/xlink">
    <g id="Page-1" stroke="none" stroke-width="1" fill="none" fill-rule="evenodd">
        <g id="Dashboard-v3" transform="translate(-1386.000000, -32.000000)" fill="#FFFFFF">
            <path d="M1404.49609,53.4726562 C1404.49609,54.0254063 1404.04883,54.4726562 1403.49609,54.4726562 C1402.94336,54.4726562 1402.49609,54.0253912 1402.49609,53.4726562 C1402.49609,49.6074062 1399.36134,46.4726562 1395.49609,46.4726562 C1391.63084,46.4726562 1388.49609,49.6074062 1388.49609,53.4726562 C1388.49609,54.0254063 1388.04883,54.4726562 1387.49609,54.4726562 C1386.94336,54.4726562 1386.49609,54.0253912 1386.49609,53.4726562 C1386.49609,48.5019562 1390.52539,44.4726562 1395.49609,44.4726562 C1400.46679,44.4726562 1404.49609,48.5019562 1404.49609,53.4726562 Z M1395.49609,43.4726562 C1392.45899,43.4726562 1389.99609,41.0097562 1389.99609,37.9726562 C1389.99609,34.9355562 1392.45899,32.4726562 1395.49609,32.4726562 C1398.53319,32.4726562 1400.99609,34.9355562 1400.99609,37.9726562 C1400.99609,41.0097562 1398.53319,43.4726562 1395.49609,43.4726562 Z M1395.49609,41.4726562 C1397.42969,41.4726562 1398.99609,39.9062562 1398.99609,37.9726562 C1398.99609,36.0390563 1397.42969,34.4726562 1395.49609,34.4726562 C1393.56249,34.4726562 1391.99609,36.0390563 1391.99609,37.9726562 C1391.99609,39.9062562 1393.56249,41.4726562 1395.49609,41.4726562 Z" id="Page-1"></path>
        </g>
    </g>
</svg>