<?xml version="1.0" encoding="UTF-8"?>
<svg width="29px" height="24px" viewBox="0 0 29 24" version="1.1" xmlns="http://www.w3.org/2000/svg" xmlns:xlink="http://www.w3.org/1999/xlink">
    <title>raf-icon</title>
    <g id="Page-1" stroke="none" stroke-width="1" fill="none" fill-rule="evenodd">
        <g id="raf-icon" fill="#FFFFFF" fill-rule="nonzero">
            <path d="M14.6357477,13.0220039 C16.6859647,11.806969 18.0714859,9.56179595 18.0714859,6.99672239 C18.0714859,3.14030745 14.9577558,0 11.1291085,0 C7.30046126,0 4.18673115,3.13737258 4.18673115,6.99672239 C4.18673115,9.60875382 5.61656547,11.8891453 7.72882072,13.0895058 C3.53680646,14.4483491 0.423076346,18.1492161 0.00357949994,22.7540221 C-0.0407335472,23.2558843 0.331496049,23.6990492 0.836664786,23.7460071 C1.34183352,23.7929649 1.7879182,23.4202369 1.83518545,22.9183746 C2.27831592,18.0318215 6.34034524,14.3485637 11.2827271,14.3485637 C16.225109,14.3485637 20.2871383,18.0347563 20.7302688,22.9183746 C20.7745818,23.3938231 21.1733992,23.7489419 21.6431175,23.7489419 C21.6697054,23.7489419 21.6992474,23.7489419 21.7258352,23.7460071 C22.231004,23.7019841 22.6032335,23.2558843 22.5589205,22.7540221 C22.1335152,18.0758445 18.9282048,14.3280196 14.6357477,13.0220039 L14.6357477,13.0220039 Z M6.0212913,6.99672239 C6.0212913,4.14696675 8.31079874,1.82548713 11.1261543,1.82548713 C13.9415099,1.82548713 16.2310174,4.14403189 16.2310174,6.99672239 C16.2310174,9.84647803 13.9415099,12.1679576 11.1261543,12.1679576 C8.31375294,12.1679576 6.0212913,9.84647803 6.0212913,6.99672239 L6.0212913,6.99672239 Z" id="Shape"></path>
            <path d="M28.4963239,22.7550358 C28.0593759,18.0766498 24.7701288,14.3286579 20.3612026,13.022584 C22.467049,11.8074951 23.8871298,9.56515695 23.8871298,6.99703411 C23.8871298,3.14044736 20.6889136,0 16.756382,0 C15.873383,0 15.0298307,0.158489867 14.25,0.446119624 C14.9509373,0.815929313 15.5820844,1.29726891 16.1191662,1.86372343 C16.3285371,1.83730845 16.5409424,1.82556846 16.7594164,1.82556846 C19.6511622,1.82556846 22.0027918,4.14421651 22.0027918,6.99703411 C22.0027918,9.84691671 19.6511622,12.1684998 16.7594164,12.1684998 C16.5409424,12.1684998 16.3224684,12.1538248 16.1100632,12.1274098 C15.8582112,12.3827546 15.5881531,12.6175544 15.2998888,12.8347442 C15.9613795,13.1223739 16.5925265,13.4687037 17.1811925,13.8678633 C17.4755255,14.0292882 17.7546867,14.208323 18.0217104,14.4079029 C22.5823547,14.8980475 26.193244,18.3906945 26.6150202,22.9193957 C26.6605356,23.3948653 27.0701743,23.75 27.5526377,23.75 C27.5799469,23.75 27.6102905,23.75 27.6375998,23.747065 C28.1595098,23.700105 28.5418393,23.2569204 28.4963239,22.7550358 Z" id="Path"></path>
        </g>
    </g>
</svg>